<?xml version="1.0" standalone="no"?>
<!DOCTYPE svg PUBLIC "-//W3C//DTD SVG 20010904//EN"
 "http://www.w3.org/TR/2001/REC-SVG-20010904/DTD/svg10.dtd">
<svg version="1.0" xmlns="http://www.w3.org/2000/svg"
 width="512.000000pt" height="512.000000pt" viewBox="0 0 512.000000 512.000000"
 preserveAspectRatio="xMidYMid meet">

<g transform="translate(0.000000,512.000000) scale(0.100000,-0.100000)"
fill="#697565" stroke="none">
<path d="M2450 4399 c-36 -5 -102 -23 -147 -38 -291 -100 -515 -350 -600 -667
-22 -85 -26 -120 -26 -249 -1 -125 3 -165 22 -238 79 -304 250 -520 514 -647
l98 -47 -62 -12 c-34 -7 -103 -26 -152 -42 -540 -176 -931 -641 -1016 -1207
-15 -98 -15 -291 0 -340 19 -66 77 -133 144 -167 l59 -30 1275 0 1276 0 46 21
c141 66 185 172 168 405 -37 509 -311 944 -754 1198 -100 57 -254 120 -360
146 -38 9 -77 19 -85 22 -8 2 21 19 64 38 318 138 531 441 565 802 44 480
-248 918 -689 1034 -89 23 -249 32 -340 18z"/>
</g>
</svg>
